<svg width="128" height="119" viewBox="0 0 128 119" fill="none" xmlns="http://www.w3.org/2000/svg">
<g filter="url(#filter0_d_15_111)">
<ellipse cx="68" cy="59.5" rx="52" ry="47.5" fill="#185781"/>
<path d="M119.5 59.5C119.5 85.4157 96.4862 106.5 68 106.5C39.5138 106.5 16.5 85.4158 16.5 59.5C16.5 33.5842 39.5138 12.5 68 12.5C96.4862 12.5 119.5 33.5842 119.5 59.5Z" stroke="#185781"/>
</g>
<path d="M45.2929 59.2929C44.9024 59.6834 44.9024 60.3166 45.2929 60.7071L51.6569 67.0711C52.0474 67.4616 52.6805 67.4616 53.0711 67.0711C53.4616 66.6805 53.4616 66.0474 53.0711 65.6569L47.4142 60L53.0711 54.3431C53.4616 53.9526 53.4616 53.3195 53.0711 52.9289C52.6805 52.5384 52.0474 52.5384 51.6569 52.9289L45.2929 59.2929ZM94 59L46 59V61L94 61V59Z" fill="white"/>
<defs>
<filter id="filter0_d_15_111" x="0" y="0" width="128" height="119" filterUnits="userSpaceOnUse" color-interpolation-filters="sRGB">
<feFlood flood-opacity="0" result="BackgroundImageFix"/>
<feColorMatrix in="SourceAlpha" type="matrix" values="0 0 0 0 0 0 0 0 0 0 0 0 0 0 0 0 0 0 127 0" result="hardAlpha"/>
<feMorphology radius="2" operator="dilate" in="SourceAlpha" result="effect1_dropShadow_15_111"/>
<feOffset dx="-4"/>
<feGaussianBlur stdDeviation="5"/>
<feComposite in2="hardAlpha" operator="out"/>
<feColorMatrix type="matrix" values="0 0 0 0 0 0 0 0 0 0 0 0 0 0 0 0 0 0 0.25 0"/>
<feBlend mode="normal" in2="BackgroundImageFix" result="effect1_dropShadow_15_111"/>
<feBlend mode="normal" in="SourceGraphic" in2="effect1_dropShadow_15_111" result="shape"/>
</filter>
</defs>
</svg>
