<svg width="119" height="113" viewBox="0 0 119 113" fill="none" xmlns="http://www.w3.org/2000/svg">
<g filter="url(#filter0_d_17_50)">
<g filter="url(#filter1_d_17_50)">
<ellipse cx="59.5" cy="52.5" rx="44.5" ry="47.5" transform="rotate(90 59.5 52.5)" fill="#185781"/>
<path d="M59.5 96.5C33.5114 96.5 12.5 76.7703 12.5 52.5C12.5 28.2297 33.5114 8.5 59.5 8.5C85.4886 8.5 106.5 28.2297 106.5 52.5C106.5 76.7703 85.4886 96.5 59.5 96.5Z" stroke="#185781"/>
</g>
<path d="M59.7071 32.966C59.3166 32.5754 58.6834 32.5754 58.2929 32.966L51.9289 39.3299C51.5384 39.7205 51.5384 40.3536 51.9289 40.7441C52.3195 41.1347 52.9526 41.1347 53.3431 40.7441L59 35.0873L64.6569 40.7441C65.0474 41.1347 65.6805 41.1347 66.0711 40.7441C66.4616 40.3536 66.4616 39.7205 66.0711 39.3299L59.7071 32.966ZM60 74.75L60 33.6731H58L58 74.75H60Z" fill="white"/>
</g>
<defs>
<filter id="filter0_d_17_50" x="8" y="8" width="103" height="97" filterUnits="userSpaceOnUse" color-interpolation-filters="sRGB">
<feFlood flood-opacity="0" result="BackgroundImageFix"/>
<feColorMatrix in="SourceAlpha" type="matrix" values="0 0 0 0 0 0 0 0 0 0 0 0 0 0 0 0 0 0 127 0" result="hardAlpha"/>
<feOffset dy="4"/>
<feGaussianBlur stdDeviation="2"/>
<feComposite in2="hardAlpha" operator="out"/>
<feColorMatrix type="matrix" values="0 0 0 0 0 0 0 0 0 0 0 0 0 0 0 0 0 0 0.25 0"/>
<feBlend mode="normal" in2="BackgroundImageFix" result="effect1_dropShadow_17_50"/>
<feBlend mode="normal" in="SourceGraphic" in2="effect1_dropShadow_17_50" result="shape"/>
</filter>
<filter id="filter1_d_17_50" x="0" y="0" width="119" height="113" filterUnits="userSpaceOnUse" color-interpolation-filters="sRGB">
<feFlood flood-opacity="0" result="BackgroundImageFix"/>
<feColorMatrix in="SourceAlpha" type="matrix" values="0 0 0 0 0 0 0 0 0 0 0 0 0 0 0 0 0 0 127 0" result="hardAlpha"/>
<feMorphology radius="2" operator="dilate" in="SourceAlpha" result="effect1_dropShadow_17_50"/>
<feOffset dy="4"/>
<feGaussianBlur stdDeviation="5"/>
<feComposite in2="hardAlpha" operator="out"/>
<feColorMatrix type="matrix" values="0 0 0 0 0 0 0 0 0 0 0 0 0 0 0 0 0 0 0.25 0"/>
<feBlend mode="normal" in2="BackgroundImageFix" result="effect1_dropShadow_17_50"/>
<feBlend mode="normal" in="SourceGraphic" in2="effect1_dropShadow_17_50" result="shape"/>
</filter>
</defs>
</svg>
